<?xml version="1.0" encoding="UTF-8" standalone="no"?>
<!DOCTYPE svg PUBLIC "-//W3C//DTD SVG 1.1//EN"
 "http://www.w3.org/Graphics/SVG/1.1/DTD/svg11.dtd">
<!-- Generated by graphviz version 2.39.20150411.0445 (20150411.0445)
 -->
<!-- Title: g Pages: 1 -->
<svg width="273pt" height="638pt"
 viewBox="0.00 0.00 273.04 638.00" xmlns="http://www.w3.org/2000/svg" xmlns:xlink="http://www.w3.org/1999/xlink">
<g id="graph0" class="graph" transform="scale(1 1) rotate(0) translate(4 634)">
<title>g</title>
<polygon fill="white" stroke="transparent" points="-4,4 -4,-634 269.037,-634 269.037,4 -4,4"/>
<!-- user -->
<g id="node1" class="node"><title>user</title>
<polygon fill="none" stroke="black" points="54,-306 0,-306 0,-270 54,-270 54,-306"/>
<text text-anchor="middle" x="27" y="-283.8" font-family="Times,serif" font-size="14.00">user</text>
</g>
<!-- join -->
<g id="node5" class="node"><title>join</title>
<ellipse fill="none" stroke="black" cx="132.518" cy="-612" rx="27" ry="18"/>
<text text-anchor="middle" x="132.518" y="-607.8" font-family="Times,serif" font-size="14.00">join</text>
</g>
<!-- user&#45;&gt;join -->
<g id="edge1" class="edge"><title>user&#45;&gt;join</title>
<path fill="none" stroke="black" d="M28.9787,-306.018C35.5246,-363.083 57.9035,-538.785 90,-585 92.9787,-589.289 96.8815,-593.046 101.115,-596.286"/>
<polygon fill="black" stroke="black" points="99.2467,-599.247 109.508,-601.884 103.131,-593.424 99.2467,-599.247"/>
</g>
<!-- leave -->
<g id="node6" class="node"><title>leave</title>
<ellipse fill="none" stroke="black" cx="132.518" cy="-558" rx="28.524" ry="18"/>
<text text-anchor="middle" x="132.518" y="-553.8" font-family="Times,serif" font-size="14.00">leave</text>
</g>
<!-- user&#45;&gt;leave -->
<g id="edge3" class="edge"><title>user&#45;&gt;leave</title>
<path fill="none" stroke="black" d="M30.7012,-306.183C39.7242,-355.043 64.026,-486.327 90,-522 94.4586,-528.123 100.768,-533.194 107.166,-537.573"/>
<polygon fill="black" stroke="black" points="105.481,-540.652 115.778,-543.147 109.285,-534.775 105.481,-540.652"/>
</g>
<!-- user&#45;&gt;leave -->
<g id="edge24" class="edge"><title>user&#45;&gt;leave</title>
<path fill="none" stroke="black" d="M29.3143,-306.175C36.9694,-357.824 62.5509,-502.301 90,-540 91.7854,-542.452 93.8675,-544.735 96.1333,-546.828"/>
<polygon fill="black" stroke="black" points="94.321,-549.85 104.38,-553.178 98.5919,-544.304 94.321,-549.85"/>
</g>
<!-- post -->
<g id="node7" class="node"><title>post</title>
<ellipse fill="none" stroke="black" cx="132.518" cy="-450" rx="27" ry="18"/>
<text text-anchor="middle" x="132.518" y="-445.8" font-family="Times,serif" font-size="14.00">post</text>
</g>
<!-- user&#45;&gt;post -->
<g id="edge5" class="edge"><title>user&#45;&gt;post</title>
<path fill="none" stroke="black" stroke-dasharray="5,2" d="M31.9611,-306.455C40.1965,-334.322 58.9319,-387.636 90,-423 93.4465,-426.923 97.5988,-430.485 101.94,-433.641"/>
<polygon fill="black" stroke="black" points="100.108,-436.625 110.385,-439.198 103.955,-430.777 100.108,-436.625"/>
</g>
<!-- create -->
<g id="node9" class="node"><title>create</title>
<ellipse fill="none" stroke="black" cx="132.518" cy="-396" rx="31.4201" ry="18"/>
<text text-anchor="middle" x="132.518" y="-391.8" font-family="Times,serif" font-size="14.00">create</text>
</g>
<!-- user&#45;&gt;create -->
<g id="edge8" class="edge"><title>user&#45;&gt;create</title>
<path fill="none" stroke="black" d="M38.4714,-306.199C50.0549,-323.65 69.1711,-350.067 90,-369 93.4415,-372.128 97.2883,-375.122 101.223,-377.902"/>
<polygon fill="black" stroke="black" points="99.5857,-381.016 109.856,-383.617 103.45,-375.179 99.5857,-381.016"/>
</g>
<!-- schedule -->
<g id="node10" class="node"><title>schedule</title>
<ellipse fill="none" stroke="black" cx="132.518" cy="-342" rx="41.092" ry="18"/>
<text text-anchor="middle" x="132.518" y="-337.8" font-family="Times,serif" font-size="14.00">schedule</text>
</g>
<!-- user&#45;&gt;schedule -->
<g id="edge10" class="edge"><title>user&#45;&gt;schedule</title>
<path fill="none" stroke="black" d="M54.1736,-301.906C67.0732,-308.508 82.6653,-316.487 96.5321,-323.584"/>
<polygon fill="black" stroke="black" points="95.3057,-326.888 105.802,-328.328 98.4947,-320.656 95.3057,-326.888"/>
</g>
<!-- cancel -->
<g id="node11" class="node"><title>cancel</title>
<ellipse fill="none" stroke="black" cx="132.518" cy="-288" rx="32.8734" ry="18"/>
<text text-anchor="middle" x="132.518" y="-283.8" font-family="Times,serif" font-size="14.00">cancel</text>
</g>
<!-- user&#45;&gt;cancel -->
<g id="edge12" class="edge"><title>user&#45;&gt;cancel</title>
<path fill="none" stroke="black" d="M54.1736,-288C64.9417,-288 77.5861,-288 89.5368,-288"/>
<polygon fill="black" stroke="black" points="89.7959,-291.5 99.7958,-288 89.7958,-284.5 89.7959,-291.5"/>
</g>
<!-- update -->
<g id="node12" class="node"><title>update</title>
<ellipse fill="none" stroke="black" cx="132.518" cy="-234" rx="33.8596" ry="18"/>
<text text-anchor="middle" x="132.518" y="-229.8" font-family="Times,serif" font-size="14.00">update</text>
</g>
<!-- user&#45;&gt;update -->
<g id="edge14" class="edge"><title>user&#45;&gt;update</title>
<path fill="none" stroke="black" d="M54.1736,-274.094C67.7984,-267.121 84.4268,-258.611 98.8534,-251.228"/>
<polygon fill="black" stroke="black" points="100.655,-254.238 107.962,-246.567 97.4656,-248.007 100.655,-254.238"/>
</g>
<!-- invite -->
<g id="node13" class="node"><title>invite</title>
<ellipse fill="none" stroke="black" cx="132.518" cy="-180" rx="30.4949" ry="18"/>
<text text-anchor="middle" x="132.518" y="-175.8" font-family="Times,serif" font-size="14.00">invite</text>
</g>
<!-- user&#45;&gt;invite -->
<g id="edge16" class="edge"><title>user&#45;&gt;invite</title>
<path fill="none" stroke="black" stroke-dasharray="5,2" d="M34.4465,-269.989C45.2428,-250.158 66.5345,-219.33 90,-198 91.925,-196.25 93.9768,-194.542 96.0999,-192.905"/>
<polygon fill="black" stroke="black" points="98.3483,-195.603 104.525,-186.995 94.3283,-189.872 98.3483,-195.603"/>
</g>
<!-- give -->
<g id="node14" class="node"><title>give</title>
<ellipse fill="none" stroke="black" cx="132.518" cy="-126" rx="27" ry="18"/>
<text text-anchor="middle" x="132.518" y="-121.8" font-family="Times,serif" font-size="14.00">give</text>
</g>
<!-- user&#45;&gt;give -->
<g id="edge19" class="edge"><title>user&#45;&gt;give</title>
<path fill="none" stroke="black" stroke-dasharray="5,2" d="M30.4685,-269.63C37.7796,-239.786 56.8835,-181.695 90,-144 92.3211,-141.358 94.9624,-138.88 97.7658,-136.614"/>
<polygon fill="black" stroke="black" points="99.8106,-139.455 105.965,-130.831 95.776,-133.734 99.8106,-139.455"/>
</g>
<!-- checkin -->
<g id="node15" class="node"><title>checkin</title>
<ellipse fill="none" stroke="black" cx="132.518" cy="-504" rx="37.7092" ry="18"/>
<text text-anchor="middle" x="132.518" y="-499.8" font-family="Times,serif" font-size="14.00">checkin</text>
</g>
<!-- user&#45;&gt;checkin -->
<g id="edge22" class="edge"><title>user&#45;&gt;checkin</title>
<path fill="none" stroke="black" d="M28.952,-306.027C33.6537,-342.014 48.4678,-423.859 90,-477 92.2885,-479.928 94.9889,-482.628 97.9016,-485.095"/>
<polygon fill="black" stroke="black" points="95.8523,-487.933 105.97,-491.078 100.022,-482.31 95.8523,-487.933"/>
</g>
<!-- complete -->
<g id="node16" class="node"><title>complete</title>
<ellipse fill="none" stroke="black" cx="132.518" cy="-72" rx="42.5369" ry="18"/>
<text text-anchor="middle" x="132.518" y="-67.8" font-family="Times,serif" font-size="14.00">complete</text>
</g>
<!-- user&#45;&gt;complete -->
<g id="edge26" class="edge"><title>user&#45;&gt;complete</title>
<path fill="none" stroke="black" d="M28.952,-269.973C33.6537,-233.986 48.4678,-152.141 90,-99 91.8678,-96.6101 94.01,-94.3722 96.3181,-92.2889"/>
<polygon fill="black" stroke="black" points="98.9054,-94.7103 104.646,-85.8055 94.6053,-89.1868 98.9054,-94.7103"/>
</g>
<!-- attend -->
<g id="node17" class="node"><title>attend</title>
<ellipse fill="none" stroke="black" cx="132.518" cy="-18" rx="31.9306" ry="18"/>
<text text-anchor="middle" x="132.518" y="-13.8" font-family="Times,serif" font-size="14.00">attend</text>
</g>
<!-- user&#45;&gt;attend -->
<g id="edge28" class="edge"><title>user&#45;&gt;attend</title>
<path fill="none" stroke="black" d="M29.9398,-269.8C38.2856,-219.82 63.2564,-81.7297 90,-45 92.5478,-41.5009 95.7,-38.3455 99.1276,-35.5316"/>
<polygon fill="black" stroke="black" points="101.359,-38.2395 107.47,-29.5851 97.2956,-32.5393 101.359,-38.2395"/>
</g>
<!-- group -->
<g id="node2" class="node"><title>group</title>
<polygon fill="none" stroke="black" points="265.037,-616 211.037,-616 211.037,-580 265.037,-580 265.037,-616"/>
<text text-anchor="middle" x="238.037" y="-593.8" font-family="Times,serif" font-size="14.00">group</text>
</g>
<!-- place -->
<g id="node3" class="node"><title>place</title>
<polygon fill="none" stroke="black" points="265.037,-535 211.037,-535 211.037,-499 265.037,-499 265.037,-535"/>
<text text-anchor="middle" x="238.037" y="-512.8" font-family="Times,serif" font-size="14.00">place</text>
</g>
<!-- route -->
<g id="node4" class="node"><title>route</title>
<polygon fill="none" stroke="black" points="265.037,-252 211.037,-252 211.037,-216 265.037,-216 265.037,-252"/>
<text text-anchor="middle" x="238.037" y="-229.8" font-family="Times,serif" font-size="14.00">route</text>
</g>
<!-- join&#45;&gt;group -->
<g id="edge2" class="edge"><title>join&#45;&gt;group</title>
<path fill="none" stroke="black" d="M159.145,-608.467C171.697,-606.802 186.889,-604.786 200.578,-602.97"/>
<polygon fill="black" stroke="black" points="201.23,-606.414 210.683,-601.629 200.31,-599.475 201.23,-606.414"/>
</g>
<!-- leave&#45;&gt;group -->
<g id="edge4" class="edge"><title>leave&#45;&gt;group</title>
<path fill="none" stroke="black" d="M157.258,-567.378C170.324,-572.331 186.62,-578.509 201.146,-584.016"/>
<polygon fill="black" stroke="black" points="200.268,-587.425 210.859,-587.697 202.749,-580.88 200.268,-587.425"/>
</g>
<!-- leave&#45;&gt;place -->
<g id="edge25" class="edge"><title>leave&#45;&gt;place</title>
<path fill="none" stroke="black" d="M156.992,-548.491C170.176,-543.368 186.707,-536.945 201.394,-531.238"/>
<polygon fill="black" stroke="black" points="202.673,-534.496 210.726,-527.612 200.137,-527.971 202.673,-534.496"/>
</g>
<!-- post&#45;&gt;route -->
<g id="edge7" class="edge"><title>post&#45;&gt;route</title>
<path fill="none" stroke="black" stroke-dasharray="5,2" d="M155.085,-439.557C162.292,-435.291 169.76,-429.752 175.037,-423 213.081,-374.322 228.706,-301.559 234.676,-262.021"/>
<polygon fill="black" stroke="black" points="238.155,-262.418 236.085,-252.027 231.223,-261.441 238.155,-262.418"/>
</g>
<!-- note -->
<g id="node8" class="node"><title>note</title>
<ellipse fill="none" stroke="black" cx="238.037" cy="-450" rx="27" ry="18"/>
<text text-anchor="middle" x="238.037" y="-445.8" font-family="Times,serif" font-size="14.00">note</text>
</g>
<!-- post&#45;&gt;note -->
<g id="edge6" class="edge"><title>post&#45;&gt;note</title>
<path fill="none" stroke="black" stroke-dasharray="5,2" d="M159.692,-450C172.246,-450 187.351,-450 200.933,-450"/>
<polygon fill="black" stroke="black" points="200.955,-453.5 210.955,-450 200.955,-446.5 200.955,-453.5"/>
</g>
<!-- create&#45;&gt;route -->
<g id="edge9" class="edge"><title>create&#45;&gt;route</title>
<path fill="none" stroke="black" d="M156.415,-384.123C163.046,-380.005 169.843,-374.912 175.037,-369 202.828,-337.366 220.751,-291.368 230.118,-262.07"/>
<polygon fill="black" stroke="black" points="233.481,-263.042 233.076,-252.455 226.79,-260.983 233.481,-263.042"/>
</g>
<!-- schedule&#45;&gt;route -->
<g id="edge11" class="edge"><title>schedule&#45;&gt;route</title>
<path fill="none" stroke="black" d="M158.281,-327.646C164.071,-323.886 169.99,-319.588 175.037,-315 192.774,-298.877 209.269,-277.327 220.928,-260.509"/>
<polygon fill="black" stroke="black" points="223.848,-262.439 226.566,-252.199 218.055,-258.509 223.848,-262.439"/>
</g>
<!-- cancel&#45;&gt;route -->
<g id="edge13" class="edge"><title>cancel&#45;&gt;route</title>
<path fill="none" stroke="black" d="M156.462,-275.747C169.857,-268.892 186.825,-260.208 201.813,-252.538"/>
<polygon fill="black" stroke="black" points="203.532,-255.59 210.84,-247.918 200.343,-249.358 203.532,-255.59"/>
</g>
<!-- update&#45;&gt;route -->
<g id="edge15" class="edge"><title>update&#45;&gt;route</title>
<path fill="none" stroke="black" d="M166.486,-234C177.352,-234 189.441,-234 200.544,-234"/>
<polygon fill="black" stroke="black" points="200.814,-237.5 210.814,-234 200.814,-230.5 200.814,-237.5"/>
</g>
<!-- invite&#45;&gt;user -->
<g id="edge17" class="edge"><title>invite&#45;&gt;user</title>
<path fill="none" stroke="black" stroke-dasharray="5,2" d="M117.471,-195.729C108.912,-201.721 98.2823,-208.471 90,-216 75.0128,-229.623 60.9122,-247.121 49.8666,-261.577"/>
<polygon fill="black" stroke="black" points="46.9748,-259.599 43.7325,-269.685 52.5572,-263.822 46.9748,-259.599"/>
</g>
<!-- invite&#45;&gt;route -->
<g id="edge18" class="edge"><title>invite&#45;&gt;route</title>
<path fill="none" stroke="black" stroke-dasharray="5,2" d="M155.675,-191.851C169.139,-198.741 186.406,-207.578 201.649,-215.378"/>
<polygon fill="black" stroke="black" points="200.33,-218.635 210.827,-220.075 203.519,-212.404 200.33,-218.635"/>
</g>
<!-- give&#45;&gt;user -->
<g id="edge21" class="edge"><title>give&#45;&gt;user</title>
<path fill="none" stroke="black" stroke-dasharray="5,2" d="M116.8,-141.069C108.017,-146.841 97.3872,-153.591 90,-162 64.4191,-191.118 47.1993,-232.405 37.3174,-259.832"/>
<polygon fill="black" stroke="black" points="33.8947,-259.016 33.8872,-269.611 40.5001,-261.333 33.8947,-259.016"/>
</g>
<!-- give&#45;&gt;route -->
<g id="edge20" class="edge"><title>give&#45;&gt;route</title>
<path fill="none" stroke="black" stroke-dasharray="5,2" d="M153.868,-137.572C160.979,-141.928 168.696,-147.236 175.037,-153 192.774,-169.123 209.269,-190.673 220.928,-207.491"/>
<polygon fill="black" stroke="black" points="218.055,-209.491 226.566,-215.801 223.848,-205.561 218.055,-209.491"/>
</g>
<!-- checkin&#45;&gt;place -->
<g id="edge23" class="edge"><title>checkin&#45;&gt;place</title>
<path fill="none" stroke="black" d="M169.128,-508.51C179.395,-509.775 190.567,-511.152 200.867,-512.421"/>
<polygon fill="black" stroke="black" points="200.458,-515.897 210.811,-513.646 201.314,-508.949 200.458,-515.897"/>
</g>
<!-- complete&#45;&gt;route -->
<g id="edge27" class="edge"><title>complete&#45;&gt;route</title>
<path fill="none" stroke="black" d="M159.957,-86.1651C165.412,-89.8319 170.766,-94.1388 175.037,-99 202.828,-130.634 220.751,-176.632 230.118,-205.93"/>
<polygon fill="black" stroke="black" points="226.79,-207.017 233.076,-215.545 233.481,-204.958 226.79,-207.017"/>
</g>
<!-- attend&#45;&gt;route -->
<g id="edge29" class="edge"><title>attend&#45;&gt;route</title>
<path fill="none" stroke="black" d="M157.297,-29.7889C163.794,-33.852 170.298,-38.9371 175.037,-45 213.081,-93.678 228.706,-166.441 234.676,-205.979"/>
<polygon fill="black" stroke="black" points="231.223,-206.559 236.085,-215.973 238.155,-205.582 231.223,-206.559"/>
</g>
</g>
</svg>
