<?xml version="1.0" encoding="UTF-8" standalone="no"?>
<!DOCTYPE svg PUBLIC "-//W3C//DTD SVG 1.1//EN"
 "http://www.w3.org/Graphics/SVG/1.1/DTD/svg11.dtd">
<!-- Generated by graphviz version 2.39.20150411.0445 (20150411.0445)
 -->
<!-- Title: g Pages: 1 -->
<svg width="391pt" height="278pt"
 viewBox="0.00 0.00 391.30 278.25" xmlns="http://www.w3.org/2000/svg" xmlns:xlink="http://www.w3.org/1999/xlink">
<g id="graph0" class="graph" transform="scale(1 1) rotate(0) translate(4 274.248)">
<title>g</title>
<polygon fill="white" stroke="transparent" points="-4,4 -4,-274.248 387.297,-274.248 387.297,4 -4,4"/>
<!-- user -->
<g id="node1" class="node"><title>user</title>
<polygon fill="none" stroke="black" points="54,-153.248 0,-153.248 0,-117.248 54,-117.248 54,-153.248"/>
<text text-anchor="middle" x="27" y="-131.048" font-family="Times,serif" font-size="14.00">user</text>
</g>
<!-- group -->
<g id="node2" class="node"><title>group</title>
<polygon fill="none" stroke="black" points="210.09,-264.248 156.09,-264.248 156.09,-228.248 210.09,-228.248 210.09,-264.248"/>
<text text-anchor="middle" x="183.09" y="-242.048" font-family="Times,serif" font-size="14.00">group</text>
</g>
<!-- user&#45;&gt;group -->
<g id="edge1" class="edge"><title>user&#45;&gt;group</title>
<path fill="none" stroke="black" d="M28.6847,-153.518C32.0786,-178.566 42.1897,-222.788 72,-243.248 93.2436,-257.828 122.555,-258.013 145.735,-254.853"/>
<polygon fill="black" stroke="black" points="146.591,-258.26 155.903,-253.206 145.472,-251.35 146.591,-258.26"/>
<text text-anchor="middle" x="105.045" y="-259.048" font-family="Times,serif" font-size="14.00">isMember</text>
</g>
<!-- route -->
<g id="node4" class="node"><title>route</title>
<polygon fill="none" stroke="black" points="210.09,-116.248 156.09,-116.248 156.09,-80.2479 210.09,-80.2479 210.09,-116.248"/>
<text text-anchor="middle" x="183.09" y="-94.0479" font-family="Times,serif" font-size="14.00">route</text>
</g>
<!-- user&#45;&gt;route -->
<g id="edge3" class="edge"><title>user&#45;&gt;route</title>
<path fill="none" stroke="black" d="M45.5426,-153.549C53.1078,-159.792 62.3449,-166.01 72,-169.248 99.8494,-178.586 112.354,-183.406 138.09,-169.248 154.926,-159.986 166.348,-141.468 173.471,-125.667"/>
<polygon fill="black" stroke="black" points="176.763,-126.864 177.36,-116.286 170.297,-124.183 176.763,-126.864"/>
<text text-anchor="middle" x="105.045" y="-180.048" font-family="Times,serif" font-size="14.00">isCreator</text>
</g>
<!-- user&#45;&gt;route -->
<g id="edge4" class="edge"><title>user&#45;&gt;route</title>
<path fill="none" stroke="black" d="M54.318,-139.053C77.3323,-141.203 110.778,-141.818 138.09,-132.248 144.397,-130.038 150.539,-126.59 156.157,-122.721"/>
<polygon fill="black" stroke="black" points="158.635,-125.235 164.5,-116.412 154.413,-119.651 158.635,-125.235"/>
<text text-anchor="middle" x="105.045" y="-143.048" font-family="Times,serif" font-size="14.00">isMember</text>
</g>
<!-- user&#45;&gt;route -->
<g id="edge5" class="edge"><title>user&#45;&gt;route</title>
<path fill="none" stroke="black" d="M54.1046,-121.046C59.8895,-118.459 66.0515,-116.022 72,-114.248 95.9098,-107.117 123.694,-103.117 145.495,-100.899"/>
<polygon fill="black" stroke="black" points="146.042,-104.364 155.673,-99.9481 145.391,-97.3939 146.042,-104.364"/>
<text text-anchor="middle" x="105.045" y="-117.048" font-family="Times,serif" font-size="14.00">isOwner</text>
</g>
<!-- group&#45;&gt;user -->
<g id="edge2" class="edge"><title>group&#45;&gt;user</title>
<path fill="none" stroke="black" d="M155.984,-233.542C150.09,-230.795 143.885,-227.915 138.09,-225.248 108.787,-211.76 97.1495,-215.449 72,-195.248 60.6255,-186.112 50.5873,-173.479 42.8947,-162.161"/>
<polygon fill="black" stroke="black" points="45.6268,-159.941 37.2476,-153.457 39.7546,-163.751 45.6268,-159.941"/>
<text text-anchor="middle" x="105.045" y="-228.048" font-family="Times,serif" font-size="14.00">hasMember</text>
</g>
<!-- place -->
<g id="node3" class="node"><title>place</title>
<polygon fill="none" stroke="black" points="383.297,-116.248 329.297,-116.248 329.297,-80.2479 383.297,-80.2479 383.297,-116.248"/>
<text text-anchor="middle" x="356.297" y="-94.0479" font-family="Times,serif" font-size="14.00">place</text>
</g>
<!-- place&#45;&gt;route -->
<g id="edge12" class="edge"><title>place&#45;&gt;route</title>
<path fill="none" stroke="black" d="M337.754,-116.549C330.189,-122.792 320.952,-129.01 311.297,-132.248 276.234,-144.004 263.152,-144.004 228.09,-132.248 221.754,-130.123 215.598,-126.715 209.976,-122.858"/>
<polygon fill="black" stroke="black" points="211.72,-119.789 201.632,-116.549 207.498,-125.372 211.72,-119.789"/>
<text text-anchor="middle" x="269.693" y="-143.048" font-family="Times,serif" font-size="14.00">isOrigin</text>
</g>
<!-- place&#45;&gt;route -->
<g id="edge13" class="edge"><title>place&#45;&gt;route</title>
<path fill="none" stroke="black" d="M329.138,-98.2479C299.824,-98.2479 252.95,-98.2479 220.237,-98.2479"/>
<polygon fill="black" stroke="black" points="220.153,-94.748 210.153,-98.2479 220.153,-101.748 220.153,-94.748"/>
<text text-anchor="middle" x="269.693" y="-101.048" font-family="Times,serif" font-size="14.00">isWaypoint</text>
</g>
<!-- place&#45;&gt;route -->
<g id="edge14" class="edge"><title>place&#45;&gt;route</title>
<path fill="none" stroke="black" d="M329.193,-85.494C323.408,-83.3186 317.246,-81.3935 311.297,-80.2479 274.983,-73.2545 264.403,-73.2545 228.09,-80.2479 225.394,-80.767 222.655,-81.4462 219.927,-82.2361"/>
<polygon fill="black" stroke="black" points="218.565,-79.0007 210.194,-85.494 220.787,-85.6387 218.565,-79.0007"/>
<text text-anchor="middle" x="269.693" y="-83.0479" font-family="Times,serif" font-size="14.00">isDestination</text>
</g>
<!-- route&#45;&gt;user -->
<g id="edge6" class="edge"><title>route&#45;&gt;user</title>
<path fill="none" stroke="black" d="M155.844,-86.5822C132.575,-78.4454 98.7273,-71.0316 72,-83.2479 60.1237,-88.6762 50.1813,-98.9581 42.6882,-108.955"/>
<polygon fill="black" stroke="black" points="39.8106,-106.963 36.9815,-117.173 45.5602,-110.956 39.8106,-106.963"/>
<text text-anchor="middle" x="105.045" y="-86.0479" font-family="Times,serif" font-size="14.00">hasCreator</text>
</g>
<!-- route&#45;&gt;user -->
<g id="edge7" class="edge"><title>route&#45;&gt;user</title>
<path fill="none" stroke="black" d="M168.41,-80.1495C160.435,-71.7732 149.814,-62.7055 138.09,-58.2479 110.634,-47.8092 97.4767,-43.6285 72,-58.2479 53.7012,-68.7483 42.1333,-89.8848 35.3152,-107.36"/>
<polygon fill="black" stroke="black" points="31.8977,-106.524 31.8347,-117.119 38.4908,-108.876 31.8977,-106.524"/>
<text text-anchor="middle" x="105.045" y="-61.0479" font-family="Times,serif" font-size="14.00">hasMember</text>
</g>
<!-- route&#45;&gt;user -->
<g id="edge8" class="edge"><title>route&#45;&gt;user</title>
<path fill="none" stroke="black" d="M176.76,-80.0115C169.998,-63.6658 157.543,-40.7015 138.09,-30.2479 112.216,-16.3438 96.522,-14.0781 72,-30.2479 46.3571,-47.1567 35.271,-82.0367 30.5139,-106.955"/>
<polygon fill="black" stroke="black" points="27.0412,-106.501 28.8387,-116.943 33.9447,-107.659 27.0412,-106.501"/>
<text text-anchor="middle" x="105.045" y="-33.0479" font-family="Times,serif" font-size="14.00">hasOwner</text>
</g>
<!-- route&#45;&gt;place -->
<g id="edge9" class="edge"><title>route&#45;&gt;place</title>
<path fill="none" stroke="black" d="M192.577,-80.0326C200.268,-67.4087 212.397,-51.598 228.09,-44.2479 261.579,-28.5622 277.807,-28.5622 311.297,-44.2479 323.557,-49.9902 333.642,-60.8964 341.135,-71.4126"/>
<polygon fill="black" stroke="black" points="338.387,-73.6047 346.809,-80.0326 344.234,-69.7555 338.387,-73.6047"/>
<text text-anchor="middle" x="269.693" y="-47.0479" font-family="Times,serif" font-size="14.00">hasOrigin</text>
</g>
<!-- route&#45;&gt;place -->
<g id="edge10" class="edge"><title>route&#45;&gt;place</title>
<path fill="none" stroke="black" d="M187.03,-79.9955C192.458,-59.8628 204.385,-28.4408 228.09,-14.2479 259.818,4.74929 279.568,4.74929 311.297,-14.2479 331.483,-26.334 343.128,-50.914 349.493,-70.3772"/>
<polygon fill="black" stroke="black" points="346.149,-71.4102 352.357,-79.9955 352.857,-69.4124 346.149,-71.4102"/>
<text text-anchor="middle" x="269.693" y="-17.0479" font-family="Times,serif" font-size="14.00">hasWaypoint</text>
</g>
<!-- route&#45;&gt;place -->
<g id="edge11" class="edge"><title>route&#45;&gt;place</title>
<path fill="none" stroke="black" d="M188.819,-116.286C195.324,-133.383 207.759,-158.063 228.09,-169.248 260.491,-187.073 278.895,-187.073 311.297,-169.248 328.133,-159.986 339.555,-141.468 346.678,-125.667"/>
<polygon fill="black" stroke="black" points="349.97,-126.864 350.567,-116.286 343.504,-124.183 349.97,-126.864"/>
<text text-anchor="middle" x="269.693" y="-185.048" font-family="Times,serif" font-size="14.00">hasDestination</text>
</g>
</g>
</svg>
