<?xml version="1.0" encoding="UTF-8" standalone="no"?>
<!DOCTYPE svg PUBLIC "-//W3C//DTD SVG 1.1//EN"
 "http://www.w3.org/Graphics/SVG/1.1/DTD/svg11.dtd">
<!-- Generated by graphviz version 2.39.20160214.2135 (20160214.2135)
 -->
<!-- Title: g Pages: 1 -->
<svg width="474pt" height="622pt"
 viewBox="0.00 0.00 474.25 622.00" xmlns="http://www.w3.org/2000/svg" xmlns:xlink="http://www.w3.org/1999/xlink">
<g id="graph0" class="graph" transform="scale(1 1) rotate(0) translate(4 618)">
<title>g</title>
<polygon fill="white" stroke="transparent" points="-4,4 -4,-618 470.246,-618 470.246,4 -4,4"/>
<!-- user -->
<g id="node1" class="node">
<title>user</title>
<polygon fill="none" stroke="black" points="54,-290 0,-290 0,-254 54,-254 54,-290"/>
<text text-anchor="middle" x="27" y="-267.8" font-family="Times,serif" font-size="14.00">user</text>
</g>
<!-- join -->
<g id="node5" class="node">
<title>join</title>
<ellipse fill="none" stroke="black" cx="132.518" cy="-596" rx="27" ry="18"/>
<text text-anchor="middle" x="132.518" y="-591.8" font-family="Times,serif" font-size="14.00">join</text>
</g>
<!-- user&#45;&gt;join -->
<g id="edge1" class="edge">
<title>user&#45;&gt;join</title>
<path fill="none" stroke="black" d="M28.9787,-290.018C35.5246,-347.083 57.9035,-522.785 90,-569 92.9787,-573.289 96.8815,-577.046 101.115,-580.286"/>
<polygon fill="black" stroke="black" points="99.2467,-583.247 109.508,-585.884 103.131,-577.424 99.2467,-583.247"/>
</g>
<!-- leave -->
<g id="node6" class="node">
<title>leave</title>
<ellipse fill="none" stroke="black" cx="132.518" cy="-542" rx="28.524" ry="18"/>
<text text-anchor="middle" x="132.518" y="-537.8" font-family="Times,serif" font-size="14.00">leave</text>
</g>
<!-- user&#45;&gt;leave -->
<g id="edge3" class="edge">
<title>user&#45;&gt;leave</title>
<path fill="none" stroke="black" d="M30.7012,-290.183C39.7242,-339.043 64.026,-470.327 90,-506 94.4586,-512.123 100.768,-517.194 107.166,-521.573"/>
<polygon fill="black" stroke="black" points="105.481,-524.652 115.778,-527.147 109.285,-518.775 105.481,-524.652"/>
</g>
<!-- user&#45;&gt;leave -->
<g id="edge24" class="edge">
<title>user&#45;&gt;leave</title>
<path fill="none" stroke="black" d="M29.3143,-290.175C36.9694,-341.824 62.5509,-486.301 90,-524 91.7854,-526.452 93.8675,-528.735 96.1333,-530.828"/>
<polygon fill="black" stroke="black" points="94.321,-533.85 104.38,-537.178 98.5919,-528.304 94.321,-533.85"/>
</g>
<!-- post -->
<g id="node7" class="node">
<title>post</title>
<ellipse fill="none" stroke="black" cx="132.518" cy="-488" rx="27" ry="18"/>
<text text-anchor="middle" x="132.518" y="-483.8" font-family="Times,serif" font-size="14.00">post</text>
</g>
<!-- user&#45;&gt;post -->
<g id="edge5" class="edge">
<title>user&#45;&gt;post</title>
<path fill="none" stroke="black" stroke-dasharray="5,2" d="M28.952,-290.027C33.6537,-326.014 48.4678,-407.859 90,-461 93.2156,-465.114 97.2448,-468.779 101.533,-471.979"/>
<polygon fill="black" stroke="black" points="99.6829,-474.951 109.952,-477.557 103.549,-469.116 99.6829,-474.951"/>
</g>
<!-- create -->
<g id="node9" class="node">
<title>create</title>
<ellipse fill="none" stroke="black" cx="132.518" cy="-434" rx="31.4201" ry="18"/>
<text text-anchor="middle" x="132.518" y="-429.8" font-family="Times,serif" font-size="14.00">create</text>
</g>
<!-- user&#45;&gt;create -->
<g id="edge8" class="edge">
<title>user&#45;&gt;create</title>
<path fill="none" stroke="black" d="M31.9611,-290.455C40.1965,-318.322 58.9319,-371.636 90,-407 93.0029,-410.418 96.5415,-413.562 100.274,-416.402"/>
<polygon fill="black" stroke="black" points="98.3947,-419.357 108.622,-422.123 102.352,-413.583 98.3947,-419.357"/>
</g>
<!-- schedule -->
<g id="node10" class="node">
<title>schedule</title>
<ellipse fill="none" stroke="black" cx="132.518" cy="-380" rx="41.092" ry="18"/>
<text text-anchor="middle" x="132.518" y="-375.8" font-family="Times,serif" font-size="14.00">schedule</text>
</g>
<!-- user&#45;&gt;schedule -->
<g id="edge10" class="edge">
<title>user&#45;&gt;schedule</title>
<path fill="none" stroke="black" d="M38.4714,-290.199C50.0549,-307.65 69.1711,-334.067 90,-353 92.6024,-355.366 95.4365,-357.654 98.3653,-359.832"/>
<polygon fill="black" stroke="black" points="96.5433,-362.827 106.756,-365.646 100.53,-357.074 96.5433,-362.827"/>
</g>
<!-- cancel -->
<g id="node11" class="node">
<title>cancel</title>
<ellipse fill="none" stroke="black" cx="132.518" cy="-326" rx="32.8734" ry="18"/>
<text text-anchor="middle" x="132.518" y="-321.8" font-family="Times,serif" font-size="14.00">cancel</text>
</g>
<!-- user&#45;&gt;cancel -->
<g id="edge12" class="edge">
<title>user&#45;&gt;cancel</title>
<path fill="none" stroke="black" d="M54.1736,-285.906C67.8985,-292.93 84.6715,-301.514 99.1713,-308.934"/>
<polygon fill="black" stroke="black" points="97.8201,-312.174 108.317,-313.614 101.009,-305.943 97.8201,-312.174"/>
</g>
<!-- update -->
<g id="node12" class="node">
<title>update</title>
<ellipse fill="none" stroke="black" cx="132.518" cy="-272" rx="33.8596" ry="18"/>
<text text-anchor="middle" x="132.518" y="-267.8" font-family="Times,serif" font-size="14.00">update</text>
</g>
<!-- user&#45;&gt;update -->
<g id="edge14" class="edge">
<title>user&#45;&gt;update</title>
<path fill="none" stroke="black" d="M54.1736,-272C64.6584,-272 76.9219,-272 88.5919,-272"/>
<polygon fill="black" stroke="black" points="88.6351,-275.5 98.635,-272 88.635,-268.5 88.6351,-275.5"/>
</g>
<!-- invite -->
<g id="node13" class="node">
<title>invite</title>
<ellipse fill="none" stroke="black" cx="132.518" cy="-218" rx="30.4949" ry="18"/>
<text text-anchor="middle" x="132.518" y="-213.8" font-family="Times,serif" font-size="14.00">invite</text>
</g>
<!-- user&#45;&gt;invite -->
<g id="edge16" class="edge">
<title>user&#45;&gt;invite</title>
<path fill="none" stroke="black" stroke-dasharray="5,2" d="M50.9438,-253.986C64.2117,-246.181 80.9869,-237.362 95.87,-230.293"/>
<polygon fill="black" stroke="black" points="97.7098,-233.299 105.321,-225.929 94.7751,-226.944 97.7098,-233.299"/>
</g>
<!-- give -->
<g id="node14" class="node">
<title>give</title>
<ellipse fill="none" stroke="black" cx="132.518" cy="-164" rx="27" ry="18"/>
<text text-anchor="middle" x="132.518" y="-159.8" font-family="Times,serif" font-size="14.00">give</text>
</g>
<!-- user&#45;&gt;give -->
<g id="edge19" class="edge">
<title>user&#45;&gt;give</title>
<path fill="none" stroke="black" stroke-dasharray="5,2" d="M34.4465,-253.989C45.2428,-234.158 66.5345,-203.33 90,-182 92.6024,-179.634 95.4365,-177.346 98.3653,-175.203"/>
<polygon fill="black" stroke="black" points="100.378,-178.068 106.756,-169.608 96.4945,-172.244 100.378,-178.068"/>
</g>
<!-- checkin -->
<g id="node15" class="node">
<title>checkin</title>
<ellipse fill="none" stroke="black" cx="338.641" cy="-136" rx="37.7092" ry="18"/>
<text text-anchor="middle" x="338.641" y="-131.8" font-family="Times,serif" font-size="14.00">checkin</text>
</g>
<!-- user&#45;&gt;checkin -->
<g id="edge22" class="edge">
<title>user&#45;&gt;checkin</title>
<path fill="none" stroke="black" d="M29.3836,-253.545C34.4213,-223.083 49.2573,-163.063 90,-137 152.898,-96.7648 244.309,-110.444 296.99,-123.549"/>
<polygon fill="black" stroke="black" points="296.43,-127.02 306.989,-126.147 298.19,-120.245 296.43,-127.02"/>
</g>
<!-- complete -->
<g id="node16" class="node">
<title>complete</title>
<ellipse fill="none" stroke="black" cx="132.518" cy="-72" rx="42.5369" ry="18"/>
<text text-anchor="middle" x="132.518" y="-67.8" font-family="Times,serif" font-size="14.00">complete</text>
</g>
<!-- user&#45;&gt;complete -->
<g id="edge26" class="edge">
<title>user&#45;&gt;complete</title>
<path fill="none" stroke="black" d="M30.282,-253.966C36.9263,-221.346 54.4575,-151.519 90,-104 92.8913,-100.134 96.3736,-96.5138 100.085,-93.1991"/>
<polygon fill="black" stroke="black" points="102.354,-95.8656 107.91,-86.8445 97.9407,-90.4318 102.354,-95.8656"/>
</g>
<!-- attend -->
<g id="node18" class="node">
<title>attend</title>
<ellipse fill="none" stroke="black" cx="132.518" cy="-18" rx="31.9306" ry="18"/>
<text text-anchor="middle" x="132.518" y="-13.8" font-family="Times,serif" font-size="14.00">attend</text>
</g>
<!-- user&#45;&gt;attend -->
<g id="edge28" class="edge">
<title>user&#45;&gt;attend</title>
<path fill="none" stroke="black" d="M27.7138,-253.908C30.1822,-212.808 41.1681,-110.878 90,-45 92.5775,-41.5227 95.7479,-38.3807 99.1856,-35.5743"/>
<polygon fill="black" stroke="black" points="101.417,-38.2825 107.539,-29.6352 97.3605,-32.5775 101.417,-38.2825"/>
</g>
<!-- group -->
<g id="node2" class="node">
<title>group</title>
<polygon fill="none" stroke="black" points="265.037,-608 211.037,-608 211.037,-572 265.037,-572 265.037,-608"/>
<text text-anchor="middle" x="238.037" y="-585.8" font-family="Times,serif" font-size="14.00">group</text>
</g>
<!-- place -->
<g id="node3" class="node">
<title>place</title>
<polygon fill="none" stroke="black" points="466.246,-127 412.246,-127 412.246,-91 466.246,-91 466.246,-127"/>
<text text-anchor="middle" x="439.246" y="-104.8" font-family="Times,serif" font-size="14.00">place</text>
</g>
<!-- route -->
<g id="node4" class="node">
<title>route</title>
<polygon fill="none" stroke="black" points="265.037,-344 211.037,-344 211.037,-308 265.037,-308 265.037,-344"/>
<text text-anchor="middle" x="238.037" y="-321.8" font-family="Times,serif" font-size="14.00">route</text>
</g>
<!-- join&#45;&gt;group -->
<g id="edge2" class="edge">
<title>join&#45;&gt;group</title>
<path fill="none" stroke="black" d="M159.692,-594.455C172.246,-593.741 187.351,-592.882 200.933,-592.11"/>
<polygon fill="black" stroke="black" points="201.17,-595.602 210.955,-591.54 200.773,-588.613 201.17,-595.602"/>
</g>
<!-- leave&#45;&gt;group -->
<g id="edge4" class="edge">
<title>leave&#45;&gt;group</title>
<path fill="none" stroke="black" d="M155.936,-552.653C169.412,-558.783 186.631,-566.616 201.817,-573.524"/>
<polygon fill="black" stroke="black" points="200.406,-576.727 210.958,-577.682 203.304,-570.355 200.406,-576.727"/>
</g>
<!-- leave&#45;&gt;place -->
<g id="edge25" class="edge">
<title>leave&#45;&gt;place</title>
<path fill="none" stroke="black" d="M161.338,-543.465C190.586,-543.419 235.629,-538.938 265.037,-515 388.067,-414.851 426.013,-211.515 436.05,-137.098"/>
<polygon fill="black" stroke="black" points="439.534,-137.445 437.336,-127.081 432.591,-136.554 439.534,-137.445"/>
</g>
<!-- post&#45;&gt;route -->
<g id="edge7" class="edge">
<title>post&#45;&gt;route</title>
<path fill="none" stroke="black" stroke-dasharray="5,2" d="M154.652,-477.198C161.825,-472.903 169.381,-467.438 175.037,-461 202.828,-429.366 220.751,-383.368 230.118,-354.07"/>
<polygon fill="black" stroke="black" points="233.481,-355.042 233.076,-344.455 226.79,-352.983 233.481,-355.042"/>
</g>
<!-- note -->
<g id="node8" class="node">
<title>note</title>
<ellipse fill="none" stroke="black" cx="238.037" cy="-488" rx="27" ry="18"/>
<text text-anchor="middle" x="238.037" y="-483.8" font-family="Times,serif" font-size="14.00">note</text>
</g>
<!-- post&#45;&gt;note -->
<g id="edge6" class="edge">
<title>post&#45;&gt;note</title>
<path fill="none" stroke="black" stroke-dasharray="5,2" d="M159.692,-488C172.246,-488 187.351,-488 200.933,-488"/>
<polygon fill="black" stroke="black" points="200.955,-491.5 210.955,-488 200.955,-484.5 200.955,-491.5"/>
</g>
<!-- create&#45;&gt;route -->
<g id="edge9" class="edge">
<title>create&#45;&gt;route</title>
<path fill="none" stroke="black" d="M155.181,-421.617C161.919,-417.42 169.084,-412.411 175.037,-407 192.774,-390.877 209.269,-369.327 220.928,-352.509"/>
<polygon fill="black" stroke="black" points="223.848,-354.439 226.566,-344.199 218.055,-350.509 223.848,-354.439"/>
</g>
<!-- schedule&#45;&gt;route -->
<g id="edge11" class="edge">
<title>schedule&#45;&gt;route</title>
<path fill="none" stroke="black" d="M159.418,-366.234C172.218,-359.683 187.715,-351.753 201.556,-344.67"/>
<polygon fill="black" stroke="black" points="203.512,-347.6 210.819,-339.929 200.323,-341.369 203.512,-347.6"/>
</g>
<!-- cancel&#45;&gt;route -->
<g id="edge13" class="edge">
<title>cancel&#45;&gt;route</title>
<path fill="none" stroke="black" d="M165.327,-326C176.536,-326 189.154,-326 200.694,-326"/>
<polygon fill="black" stroke="black" points="200.917,-329.5 210.917,-326 200.917,-322.5 200.917,-329.5"/>
</g>
<!-- update&#45;&gt;route -->
<g id="edge15" class="edge">
<title>update&#45;&gt;route</title>
<path fill="none" stroke="black" d="M156.992,-284.524C170.302,-291.336 187.022,-299.893 201.813,-307.462"/>
<polygon fill="black" stroke="black" points="200.23,-310.583 210.726,-312.023 203.419,-304.352 200.23,-310.583"/>
</g>
<!-- invite&#45;&gt;user -->
<g id="edge17" class="edge">
<title>invite&#45;&gt;user</title>
<path fill="none" stroke="black" stroke-dasharray="5,2" d="M114.396,-232.515C100.419,-241.12 80.6313,-251.651 63.4183,-259.816"/>
<polygon fill="black" stroke="black" points="61.7872,-256.714 54.1736,-264.082 64.7201,-263.07 61.7872,-256.714"/>
</g>
<!-- invite&#45;&gt;route -->
<g id="edge18" class="edge">
<title>invite&#45;&gt;route</title>
<path fill="none" stroke="black" stroke-dasharray="5,2" d="M155.181,-230.383C161.919,-234.58 169.084,-239.589 175.037,-245 192.774,-261.123 209.269,-282.673 220.928,-299.491"/>
<polygon fill="black" stroke="black" points="218.055,-301.491 226.566,-307.801 223.848,-297.561 218.055,-301.491"/>
</g>
<!-- give&#45;&gt;user -->
<g id="edge21" class="edge">
<title>give&#45;&gt;user</title>
<path fill="none" stroke="black" stroke-dasharray="5,2" d="M117.871,-179.448C109.245,-185.511 98.4117,-192.354 90,-200 75.0128,-213.623 60.9122,-231.121 49.8666,-245.577"/>
<polygon fill="black" stroke="black" points="46.9748,-243.599 43.7325,-253.685 52.5572,-247.822 46.9748,-243.599"/>
</g>
<!-- give&#45;&gt;route -->
<g id="edge20" class="edge">
<title>give&#45;&gt;route</title>
<path fill="none" stroke="black" stroke-dasharray="5,2" d="M154.652,-174.802C161.825,-179.097 169.381,-184.562 175.037,-191 202.828,-222.634 220.751,-268.632 230.118,-297.93"/>
<polygon fill="black" stroke="black" points="226.79,-299.017 233.076,-307.545 233.481,-296.958 226.79,-299.017"/>
</g>
<!-- checkin&#45;&gt;place -->
<g id="edge23" class="edge">
<title>checkin&#45;&gt;place</title>
<path fill="none" stroke="black" d="M371.583,-127.159C381.382,-124.529 392.183,-121.63 402.224,-118.936"/>
<polygon fill="black" stroke="black" points="403.195,-122.299 411.946,-116.327 401.381,-115.538 403.195,-122.299"/>
</g>
<!-- ride -->
<g id="node17" class="node">
<title>ride</title>
<ellipse fill="none" stroke="black" cx="238.037" cy="-55" rx="27" ry="18"/>
<text text-anchor="middle" x="238.037" y="-50.8" font-family="Times,serif" font-size="14.00">ride</text>
</g>
<!-- complete&#45;&gt;ride -->
<g id="edge27" class="edge">
<title>complete&#45;&gt;ride</title>
<path fill="none" stroke="black" d="M172.41,-65.573C181.909,-64.0428 192,-62.417 201.347,-60.9111"/>
<polygon fill="black" stroke="black" points="202.196,-64.3195 211.512,-59.2734 201.083,-57.4086 202.196,-64.3195"/>
</g>
<!-- depart -->
<g id="node19" class="node">
<title>depart</title>
<ellipse fill="none" stroke="black" cx="338.641" cy="-82" rx="32.4063" ry="18"/>
<text text-anchor="middle" x="338.641" y="-77.8" font-family="Times,serif" font-size="14.00">depart</text>
</g>
<!-- ride&#45;&gt;depart -->
<g id="edge30" class="edge">
<title>ride&#45;&gt;depart</title>
<path fill="none" stroke="black" d="M263.164,-61.7436C274.168,-64.6967 287.336,-68.2309 299.571,-71.5144"/>
<polygon fill="black" stroke="black" points="298.995,-74.9836 309.56,-74.1953 300.809,-68.2228 298.995,-74.9836"/>
</g>
<!-- arrive -->
<g id="node20" class="node">
<title>arrive</title>
<ellipse fill="none" stroke="black" cx="338.641" cy="-28" rx="30.9532" ry="18"/>
<text text-anchor="middle" x="338.641" y="-23.8" font-family="Times,serif" font-size="14.00">arrive</text>
</g>
<!-- ride&#45;&gt;arrive -->
<g id="edge32" class="edge">
<title>ride&#45;&gt;arrive</title>
<path fill="none" stroke="black" d="M263.164,-48.2564C274.553,-45.1999 288.262,-41.5207 300.854,-38.1414"/>
<polygon fill="black" stroke="black" points="301.896,-41.4857 310.647,-35.5132 300.081,-34.7249 301.896,-41.4857"/>
</g>
<!-- attend&#45;&gt;ride -->
<g id="edge29" class="edge">
<title>attend&#45;&gt;ride</title>
<path fill="none" stroke="black" d="M159.692,-27.5284C173.286,-32.2952 189.871,-38.1105 204.275,-43.1613"/>
<polygon fill="black" stroke="black" points="203.24,-46.5074 213.835,-46.5136 205.557,-39.9018 203.24,-46.5074"/>
</g>
<!-- depart&#45;&gt;place -->
<g id="edge31" class="edge">
<title>depart&#45;&gt;place</title>
<path fill="none" stroke="black" d="M367.74,-89.8095C378.513,-92.7005 390.873,-96.0177 402.253,-99.072"/>
<polygon fill="black" stroke="black" points="401.372,-102.459 411.938,-101.671 403.187,-95.6987 401.372,-102.459"/>
</g>
<!-- arrive&#45;&gt;place -->
<g id="edge33" class="edge">
<title>arrive&#45;&gt;place</title>
<path fill="none" stroke="black" d="M358.783,-41.9788C364.501,-46.0767 370.683,-50.6321 376.246,-55 387.893,-64.1454 400.344,-74.6533 411.076,-83.9547"/>
<polygon fill="black" stroke="black" points="409.071,-86.8502 418.906,-90.7899 413.675,-81.5768 409.071,-86.8502"/>
</g>
</g>
</svg>
