<?xml version="1.0" encoding="UTF-8" standalone="no"?>
<!DOCTYPE svg PUBLIC "-//W3C//DTD SVG 1.1//EN"
 "http://www.w3.org/Graphics/SVG/1.1/DTD/svg11.dtd">
<!-- Generated by graphviz version 2.39.20160214.2135 (20160214.2135)
 -->
<!-- Title: g Pages: 1 -->
<svg width="534pt" height="295pt"
 viewBox="0.00 0.00 533.81 295.19" xmlns="http://www.w3.org/2000/svg" xmlns:xlink="http://www.w3.org/1999/xlink">
<g id="graph0" class="graph" transform="scale(1 1) rotate(0) translate(4 291.188)">
<title>g</title>
<polygon fill="white" stroke="transparent" points="-4,4 -4,-291.188 529.814,-291.188 529.814,4 -4,4"/>
<!-- user -->
<g id="node1" class="node">
<title>user</title>
<polygon fill="none" stroke="black" points="193.197,-152.188 139.197,-152.188 139.197,-116.188 193.197,-116.188 193.197,-152.188"/>
<text text-anchor="middle" x="166.197" y="-129.988" font-family="Times,serif" font-size="14.00">user</text>
</g>
<!-- group -->
<g id="node2" class="node">
<title>group</title>
<polygon fill="none" stroke="black" points="352.607,-281.188 298.607,-281.188 298.607,-245.188 352.607,-245.188 352.607,-281.188"/>
<text text-anchor="middle" x="325.607" y="-258.988" font-family="Times,serif" font-size="14.00">group</text>
</g>
<!-- user&#45;&gt;group -->
<g id="edge1" class="edge">
<title>user&#45;&gt;group</title>
<path fill="none" stroke="black" d="M170.553,-152.431C178.532,-184.153 196.349,-247.332 214.518,-260.188 235.645,-275.138 265.135,-275.244 288.422,-271.957"/>
<polygon fill="black" stroke="black" points="289.015,-275.407 298.305,-270.313 287.866,-268.502 289.015,-275.407"/>
<text text-anchor="middle" x="247.562" y="-275.988" font-family="Times,serif" font-size="14.00">isMember</text>
</g>
<!-- route -->
<g id="node4" class="node">
<title>route</title>
<polygon fill="none" stroke="black" points="352.607,-115.188 298.607,-115.188 298.607,-79.1883 352.607,-79.1883 352.607,-115.188"/>
<text text-anchor="middle" x="325.607" y="-92.9883" font-family="Times,serif" font-size="14.00">route</text>
</g>
<!-- user&#45;&gt;route -->
<g id="edge3" class="edge">
<title>user&#45;&gt;route</title>
<path fill="none" stroke="black" d="M177.227,-152.297C185.733,-164.389 198.701,-179.295 214.518,-186.188 241.444,-197.924 255.586,-201.575 280.607,-186.188 302.056,-172.998 313.658,-146.072 319.679,-125.273"/>
<polygon fill="black" stroke="black" points="323.129,-125.912 322.273,-115.352 316.357,-124.141 323.129,-125.912"/>
<text text-anchor="middle" x="247.562" y="-198.988" font-family="Times,serif" font-size="14.00">isCreator</text>
</g>
<!-- user&#45;&gt;route -->
<g id="edge4" class="edge">
<title>user&#45;&gt;route</title>
<path fill="none" stroke="black" d="M193.318,-145.707C217.309,-154.083 252.731,-161.93 280.607,-149.188 292.484,-143.76 302.426,-133.478 309.919,-123.481"/>
<polygon fill="black" stroke="black" points="312.797,-125.473 315.626,-115.263 307.047,-121.48 312.797,-125.473"/>
<text text-anchor="middle" x="247.562" y="-157.988" font-family="Times,serif" font-size="14.00">isMember</text>
</g>
<!-- user&#45;&gt;route -->
<g id="edge5" class="edge">
<title>user&#45;&gt;route</title>
<path fill="none" stroke="black" d="M193.237,-130.022C216.563,-126.183 251.059,-119.918 280.607,-112.188 283.207,-111.508 285.874,-110.758 288.551,-109.966"/>
<polygon fill="black" stroke="black" points="289.666,-113.285 298.174,-106.971 287.586,-106.601 289.666,-113.285"/>
<text text-anchor="middle" x="247.562" y="-127.988" font-family="Times,serif" font-size="14.00">isOwner</text>
</g>
<!-- group&#45;&gt;user -->
<g id="edge2" class="edge">
<title>group&#45;&gt;user</title>
<path fill="none" stroke="black" d="M298.552,-250.371C292.655,-247.631 286.436,-244.782 280.607,-242.188 251.462,-229.219 238.625,-235.081 214.518,-214.188 198.118,-199.975 185.664,-178.776 177.511,-161.771"/>
<polygon fill="black" stroke="black" points="180.54,-159.977 173.209,-152.328 174.169,-162.879 180.54,-159.977"/>
<text text-anchor="middle" x="247.562" y="-244.988" font-family="Times,serif" font-size="14.00">hasMember</text>
</g>
<!-- place -->
<g id="node3" class="node">
<title>place</title>
<polygon fill="none" stroke="black" points="525.814,-115.188 471.814,-115.188 471.814,-79.1883 525.814,-79.1883 525.814,-115.188"/>
<text text-anchor="middle" x="498.814" y="-92.9883" font-family="Times,serif" font-size="14.00">place</text>
</g>
<!-- place&#45;&gt;route -->
<g id="edge12" class="edge">
<title>place&#45;&gt;route</title>
<path fill="none" stroke="black" d="M480.272,-115.49C472.707,-121.733 463.47,-127.951 453.814,-131.188 418.752,-142.945 405.67,-142.945 370.607,-131.188 364.271,-129.064 358.115,-125.655 352.493,-121.799"/>
<polygon fill="black" stroke="black" points="354.237,-118.73 344.15,-115.49 350.015,-124.313 354.237,-118.73"/>
<text text-anchor="middle" x="412.211" y="-141.988" font-family="Times,serif" font-size="14.00">isOrigin</text>
</g>
<!-- place&#45;&gt;route -->
<g id="edge13" class="edge">
<title>place&#45;&gt;route</title>
<path fill="none" stroke="black" d="M471.656,-97.1883C442.341,-97.1883 395.467,-97.1883 362.754,-97.1883"/>
<polygon fill="black" stroke="black" points="362.671,-93.6884 352.671,-97.1883 362.671,-100.688 362.671,-93.6884"/>
<text text-anchor="middle" x="412.211" y="-99.9883" font-family="Times,serif" font-size="14.00">isWaypoint</text>
</g>
<!-- place&#45;&gt;route -->
<g id="edge14" class="edge">
<title>place&#45;&gt;route</title>
<path fill="none" stroke="black" d="M471.711,-84.4345C465.926,-82.259 459.763,-80.334 453.814,-79.1883 417.501,-72.1949 406.921,-72.1949 370.607,-79.1883 367.912,-79.7074 365.172,-80.3866 362.444,-81.1766"/>
<polygon fill="black" stroke="black" points="361.083,-77.9412 352.711,-84.4345 363.305,-84.5792 361.083,-77.9412"/>
<text text-anchor="middle" x="412.211" y="-81.9883" font-family="Times,serif" font-size="14.00">isDestination</text>
</g>
<!-- route&#45;&gt;user -->
<g id="edge6" class="edge">
<title>route&#45;&gt;user</title>
<path fill="none" stroke="black" d="M298.246,-91.0268C275.205,-87.0965 241.745,-84.3809 214.518,-94.1883 205.488,-97.4407 196.949,-103.194 189.633,-109.341"/>
<polygon fill="black" stroke="black" points="187.271,-106.758 182.209,-116.065 191.97,-111.946 187.271,-106.758"/>
<text text-anchor="middle" x="247.562" y="-96.9883" font-family="Times,serif" font-size="14.00">hasCreator</text>
</g>
<!-- route&#45;&gt;user -->
<g id="edge7" class="edge">
<title>route&#45;&gt;user</title>
<path fill="none" stroke="black" d="M302.027,-79.1295C295.439,-75.0562 288.039,-71.3117 280.607,-69.1883 252.364,-61.1188 240.762,-55.9965 214.518,-69.1883 198.646,-77.166 186.672,-93.0985 178.614,-107.192"/>
<polygon fill="black" stroke="black" points="175.489,-105.614 173.883,-116.086 181.669,-108.902 175.489,-105.614"/>
<text text-anchor="middle" x="247.562" y="-71.9883" font-family="Times,serif" font-size="14.00">hasMember</text>
</g>
<!-- route&#45;&gt;user -->
<g id="edge8" class="edge">
<title>route&#45;&gt;user</title>
<path fill="none" stroke="black" d="M316.12,-78.973C308.429,-66.3492 296.3,-50.5385 280.607,-43.1883 254.007,-30.7295 239.691,-28.053 214.518,-43.1883 191.989,-56.7332 179.403,-84.7136 172.767,-106.093"/>
<polygon fill="black" stroke="black" points="169.329,-105.391 169.97,-115.966 176.064,-107.299 169.329,-105.391"/>
<text text-anchor="middle" x="247.562" y="-45.9883" font-family="Times,serif" font-size="14.00">hasOwner</text>
</g>
<!-- route&#45;&gt;place -->
<g id="edge9" class="edge">
<title>route&#45;&gt;place</title>
<path fill="none" stroke="black" d="M335.095,-78.973C342.785,-66.3492 354.914,-50.5385 370.607,-43.1883 404.097,-27.5027 420.325,-27.5027 453.814,-43.1883 466.075,-48.9306 476.159,-59.8369 483.652,-70.3531"/>
<polygon fill="black" stroke="black" points="480.905,-72.5452 489.327,-78.973 486.752,-68.696 480.905,-72.5452"/>
<text text-anchor="middle" x="412.211" y="-45.9883" font-family="Times,serif" font-size="14.00">hasOrigin</text>
</g>
<!-- route&#45;&gt;place -->
<g id="edge10" class="edge">
<title>route&#45;&gt;place</title>
<path fill="none" stroke="black" d="M329.614,-79.1456C335.103,-59.2456 347.087,-28.1913 370.607,-14.1883 402.383,4.72944 422.039,4.72944 453.814,-14.1883 473.752,-26.0581 485.4,-50.1795 491.829,-69.3738"/>
<polygon fill="black" stroke="black" points="488.544,-70.6007 494.808,-79.1456 495.24,-68.5596 488.544,-70.6007"/>
<text text-anchor="middle" x="412.211" y="-16.9883" font-family="Times,serif" font-size="14.00">hasWaypoint</text>
</g>
<!-- route&#45;&gt;place -->
<g id="edge11" class="edge">
<title>route&#45;&gt;place</title>
<path fill="none" stroke="black" d="M331.337,-115.227C337.842,-132.324 350.277,-157.004 370.607,-168.188 403.009,-186.013 421.413,-186.013 453.814,-168.188 470.651,-158.926 482.072,-140.409 489.195,-124.607"/>
<polygon fill="black" stroke="black" points="492.488,-125.805 493.085,-115.227 486.022,-123.124 492.488,-125.805"/>
<text text-anchor="middle" x="412.211" y="-183.988" font-family="Times,serif" font-size="14.00">hasDestination</text>
</g>
<!-- ride -->
<g id="node5" class="node">
<title>ride</title>
<ellipse fill="none" stroke="black" cx="27" cy="-97.1883" rx="27" ry="18"/>
<text text-anchor="middle" x="27" y="-92.9883" font-family="Times,serif" font-size="14.00">ride</text>
</g>
<!-- ride&#45;&gt;user -->
<g id="edge16" class="edge">
<title>ride&#45;&gt;user</title>
<path fill="none" stroke="black" d="M51.1611,-105.698C57.8705,-107.936 65.1851,-110.261 72,-112.188 90.642,-117.46 111.611,-122.448 129.024,-126.337"/>
<polygon fill="black" stroke="black" points="128.302,-129.762 138.821,-128.494 129.807,-122.926 128.302,-129.762"/>
<text text-anchor="middle" x="94.938" y="-125.988" font-family="Times,serif" font-size="14.00">isDriver</text>
</g>
<!-- ride&#45;&gt;user -->
<g id="edge17" class="edge">
<title>ride&#45;&gt;user</title>
<path fill="none" stroke="black" d="M52.8622,-91.3497C71.4939,-88.3216 96.9352,-86.6455 117.876,-94.1883 126.905,-97.4407 135.444,-103.194 142.76,-109.341"/>
<polygon fill="black" stroke="black" points="140.423,-111.946 150.184,-116.065 145.122,-106.758 140.423,-111.946"/>
<text text-anchor="middle" x="94.938" y="-96.9883" font-family="Times,serif" font-size="14.00">isRider</text>
</g>
<!-- ride&#45;&gt;route -->
<g id="edge15" class="edge">
<title>ride&#45;&gt;route</title>
<path fill="none" stroke="black" d="M48.8216,-86.4292C83.0993,-70.1914 152.102,-40.1559 214.518,-29.1883 243.448,-24.1048 254.733,-15.2843 280.607,-29.1883 296.565,-37.7636 307.814,-54.7574 315.073,-69.6105"/>
<polygon fill="black" stroke="black" points="311.982,-71.2693 319.277,-78.9519 318.365,-68.3964 311.982,-71.2693"/>
<text text-anchor="middle" x="166.197" y="-52.9883" font-family="Times,serif" font-size="14.00">instanceOf</text>
</g>
</g>
</svg>
