<?xml version="1.0" encoding="UTF-8" standalone="no"?>
<!DOCTYPE svg PUBLIC "-//W3C//DTD SVG 1.1//EN"
 "http://www.w3.org/Graphics/SVG/1.1/DTD/svg11.dtd">
<!-- Generated by graphviz version 2.39.20160214.2135 (20160214.2135)
 -->
<!-- Title: g Pages: 1 -->
<svg width="326pt" height="557pt"
 viewBox="0.00 0.00 326.30 557.00" xmlns="http://www.w3.org/2000/svg" xmlns:xlink="http://www.w3.org/1999/xlink">
<g id="graph0" class="graph" transform="scale(1 1) rotate(0) translate(4 553)">
<title>g</title>
<polygon fill="white" stroke="transparent" points="-4,4 -4,-553 322.302,-553 322.302,4 -4,4"/>
<!-- login -->
<g id="node1" class="node">
<title>login</title>
<ellipse fill="none" stroke="black" cx="61.6779" cy="-45" rx="28.0736" ry="18"/>
<text text-anchor="middle" x="61.6779" y="-40.8" font-family="Times,serif" font-size="14.00">login</text>
</g>
<!-- home -->
<g id="node5" class="node">
<title>home</title>
<ellipse fill="none" stroke="black" cx="189.11" cy="-45" rx="29.5104" ry="18"/>
<text text-anchor="middle" x="189.11" y="-40.8" font-family="Times,serif" font-size="14.00">home</text>
</g>
<!-- login&#45;&gt;home -->
<g id="edge1" class="edge">
<title>login&#45;&gt;home</title>
<path fill="none" stroke="black" d="M90.2761,-45C107.612,-45 129.993,-45 149.072,-45"/>
<polygon fill="black" stroke="black" points="149.278,-48.5001 159.278,-45 149.278,-41.5001 149.278,-48.5001"/>
</g>
<!-- signup -->
<g id="node2" class="node">
<title>signup</title>
<ellipse fill="none" stroke="black" cx="61.6779" cy="-99" rx="33.8857" ry="18"/>
<text text-anchor="middle" x="61.6779" y="-94.8" font-family="Times,serif" font-size="14.00">signup</text>
</g>
<!-- password -->
<g id="node3" class="node">
<title>password</title>
<ellipse fill="none" stroke="black" cx="61.6779" cy="-153" rx="43.5233" ry="18"/>
<text text-anchor="middle" x="61.6779" y="-148.8" font-family="Times,serif" font-size="14.00">password</text>
</g>
<!-- auth -->
<g id="node4" class="node">
<title>auth</title>
<ellipse fill="none" stroke="black" cx="61.6779" cy="-207" rx="27" ry="18"/>
<text text-anchor="middle" x="61.6779" y="-202.8" font-family="Times,serif" font-size="14.00">auth</text>
</g>
<!-- feeds -->
<g id="node6" class="node">
<title>feeds</title>
<ellipse fill="none" stroke="black" cx="286.583" cy="-72" rx="28.5325" ry="18"/>
<text text-anchor="middle" x="286.583" y="-67.8" font-family="Times,serif" font-size="14.00">feeds</text>
</g>
<!-- home&#45;&gt;feeds -->
<g id="edge2" class="edge">
<title>home&#45;&gt;feeds</title>
<path fill="none" stroke="black" d="M216.262,-52.521C226.892,-55.4657 239.24,-58.886 250.595,-62.0313"/>
<polygon fill="black" stroke="black" points="249.678,-65.4091 260.25,-64.7056 251.547,-58.6631 249.678,-65.4091"/>
</g>
<!-- routes -->
<g id="node7" class="node">
<title>routes</title>
<ellipse fill="none" stroke="black" cx="286.583" cy="-18" rx="31.9393" ry="18"/>
<text text-anchor="middle" x="286.583" y="-13.8" font-family="Times,serif" font-size="14.00">routes</text>
</g>
<!-- home&#45;&gt;routes -->
<g id="edge3" class="edge">
<title>home&#45;&gt;routes</title>
<path fill="none" stroke="black" d="M216.262,-37.479C226.08,-34.7593 237.363,-31.6339 247.975,-28.6943"/>
<polygon fill="black" stroke="black" points="249.173,-31.9945 257.875,-25.952 247.304,-25.2486 249.173,-31.9945"/>
</g>
<!-- findroute -->
<g id="node8" class="node">
<title>findroute</title>
<ellipse fill="none" stroke="black" cx="61.6779" cy="-261" rx="42.0784" ry="18"/>
<text text-anchor="middle" x="61.6779" y="-256.8" font-family="Times,serif" font-size="14.00">findroute</text>
</g>
<!-- createroute -->
<g id="node9" class="node">
<title>createroute</title>
<ellipse fill="none" stroke="black" cx="61.6779" cy="-315" rx="49.2601" ry="18"/>
<text text-anchor="middle" x="61.6779" y="-310.8" font-family="Times,serif" font-size="14.00">createroute</text>
</g>
<!-- manageroute -->
<g id="node10" class="node">
<title>manageroute</title>
<ellipse fill="none" stroke="black" cx="61.6779" cy="-369" rx="55.551" ry="18"/>
<text text-anchor="middle" x="61.6779" y="-364.8" font-family="Times,serif" font-size="14.00">manageroute</text>
</g>
<!-- manageusers -->
<g id="node11" class="node">
<title>manageusers</title>
<ellipse fill="none" stroke="black" cx="61.6779" cy="-423" rx="55.5596" ry="18"/>
<text text-anchor="middle" x="61.6779" y="-418.8" font-family="Times,serif" font-size="14.00">manageusers</text>
</g>
<!-- managegroups -->
<g id="node12" class="node">
<title>managegroups</title>
<ellipse fill="none" stroke="black" cx="61.6779" cy="-477" rx="61.8563" ry="18"/>
<text text-anchor="middle" x="61.6779" y="-472.8" font-family="Times,serif" font-size="14.00">managegroups</text>
</g>
<!-- places -->
<g id="node13" class="node">
<title>places</title>
<ellipse fill="none" stroke="black" cx="61.6779" cy="-531" rx="32.4063" ry="18"/>
<text text-anchor="middle" x="61.6779" y="-526.8" font-family="Times,serif" font-size="14.00">places</text>
</g>
</g>
</svg>
